Coordinates
version=1
nRows=17
nColumns=40
inDegrees=yes

Units are S.I. units (second, meters, Newtons, ...)
Angles are in degrees.

endheader
time	pelvis_tilt	pelvis_list	pelvis_rotation	pelvis_tx	pelvis_ty	pelvis_tz	hip_flexion_r	hip_adduction_r	hip_rotation_r	knee_angle_r	knee_angle_r_beta	ankle_angle_r	subtalar_angle_r	mtp_angle_r	hip_flexion_l	hip_adduction_l	hip_rotation_l	knee_angle_l	knee_angle_l_beta	ankle_angle_l	subtalar_angle_l	mtp_angle_l	lumbar_extension	lumbar_bending	lumbar_rotation	arm_flex_r	arm_add_r	arm_rot_r	elbow_flex_r	pro_sup_r	wrist_flex_r	wrist_dev_r	arm_flex_l	arm_add_l	arm_rot_l	elbow_flex_l	pro_sup_l	wrist_flex_l	wrist_dev_l
     30.20000000	     -6.43359358	     -4.50331785	     -2.93189521	      1.06875728	      0.92698405	      0.42592700	     31.16753481	     -4.49004812	     -4.21217019	     69.65298359	     69.65298359	     -2.06818749	    -17.12766503	      1.52023852	     19.37860641	     -6.36864670	     -5.58364531	     25.30281544	     25.30281544	     13.99333382	    -13.06919255	      3.54154820	    -11.16235797	      4.87175311	      4.47786120	     14.87017691	    -11.97308099	     -2.43647589	     64.11448019	     44.99719562	      0.00000000	      0.00000000	      4.48593468	    -14.53914710	      1.09096273	     57.91035872	     45.88066172	      0.00000000	      0.00000000
     30.21157143	     -6.38851986	     -4.60489745	     -3.31050104	      1.06724329	      0.92779554	      0.42633963	     32.47481475	     -4.24360794	     -4.32145578	     68.70166298	     68.70166298	     -1.97839152	    -16.81150419	      0.92197132	     18.42078387	     -6.42833221	     -5.58036121	     24.68410402	     24.68410402	     14.18635914	    -13.53303320	      3.74663501	    -11.29731156	      5.03596347	      4.59620309	     13.83217612	    -12.04788434	     -2.15075785	     58.94482658	     45.18067706	      0.00000000	      0.00000000	      6.08138497	    -15.25196176	      1.26167075	     60.88110344	     45.99335530	      0.00000000	      0.00000000
     30.22314286	     -6.29893522	     -4.74875928	     -3.71145165	      1.06582689	      0.92856987	      0.42685155	     33.60864886	     -3.89628777	     -4.43042327	     67.56394415	     67.56394415	     -1.80918066	    -16.46282869	      0.84613672	     17.42088613	     -6.63117646	     -5.93534000	     24.11493898	     24.11493898	     14.50985237	    -13.35251366	      3.68020936	    -11.57626185	      5.26094738	      5.38018407	     11.76512435	    -12.71510539	     -1.84162936	     56.10431084	     45.26211410	      0.00000000	      0.00000000	      8.31957732	    -15.32141679	      0.85364733	     63.11798009	     46.08765826	      0.00000000	      0.00000000
     30.23471429	     -6.23290106	     -4.87626159	     -4.11306228	      1.06437710	      0.92916583	      0.42750668	     34.65209830	     -3.52233546	     -4.51196367	     66.20286411	     66.20286411	     -1.75147081	    -16.08927639	      0.56938948	     16.50652389	     -6.85678774	     -6.42579799	     23.63449513	     23.63449513	     14.68939146	    -13.11511016	      3.08021016	    -11.70759568	      5.39196021	      4.78768481	     12.44583167	    -12.12656120	     -1.27502928	     47.97124787	     45.54241870	      0.00000000	      0.00000000	      9.19018449	    -16.69415062	      1.09226171	     66.92261175	     46.21368656	      0.00000000	      0.00000000
     30.24628571	     -6.13469480	     -4.98319070	     -4.50443772	      1.06305232	      0.92978494	      0.42810278	     35.50281202	     -3.16468221	     -4.59990614	     64.55373409	     64.55373409	     -1.62310389	    -15.58395454	      0.51612415	     15.49399828	     -6.98956865	     -6.77286732	     23.02936446	     23.02936446	     14.84327260	    -13.06774177	      2.68023250	    -11.94776756	      5.54419689	      4.53259935	     12.27377010	    -12.03776687	     -0.46873526	     42.18694187	     45.71989542	      0.00000000	      0.00000000	     10.42969515	    -17.17406976	     -0.25544701	     69.99631471	     46.46760001	      0.00000000	      0.00000000
     30.25785714	     -6.09805297	     -5.08172766	     -4.86765346	      1.06177998	      0.93021122	      0.42876235	     36.26204421	     -2.81465871	     -4.70735329	     62.59707074	     62.59707074	     -1.43110795	    -14.93823391	      0.48924581	     14.56836608	     -7.12703811	     -7.16869699	     22.44968435	     22.44968435	     15.02469518	    -12.90289534	      2.31745486	    -12.11737376	      5.70160647	      4.57022943	     11.66841415	    -12.12559214	      0.06900754	     37.42777941	     45.86878889	      0.00000000	      0.00000000	     11.94806250	    -17.68783401	     -0.82197797	     72.75537812	     46.64750286	      0.00000000	      0.00000000
     30.26942857	     -6.04069247	     -5.16676602	     -5.20556114	      1.06063860	      0.93062214	      0.42941313	     36.81720004	     -2.49957970	     -4.84670038	     60.28877088	     60.28877088	     -1.17073206	    -14.07289446	      0.51932976	     13.59477311	     -7.21751933	     -7.50809608	     21.82605195	     21.82605195	     15.28667093	    -12.74116350	      2.26835400	    -12.35444800	      5.88579871	      5.11055253	      9.90420317	    -12.62025829	      0.25340946	     35.41615504	     45.92573225	      0.00000000	      0.00000000	     13.96892875	    -17.71541210	     -1.31369393	     74.82504981	     46.74161214	      0.00000000	      0.00000000
     30.28100000	     -6.01934407	     -5.18491220	     -5.53310413	      1.05956906	      0.93081563	      0.43018394	     37.26061789	     -2.21984993	     -4.93234632	     57.66837790	     57.66837790	     -0.84510976	    -13.10511175	      0.42825605	     12.68493740	     -7.25375303	     -7.91178454	     21.24788548	     21.24788548	     15.51743718	    -12.50191676	      2.05052100	    -12.51638484	      5.95737608	      5.48569126	      8.45986801	    -12.94189101	      0.48112583	     32.80505773	     46.00820016	      0.00000000	      0.00000000	     15.80749795	    -17.95825411	     -1.56316575	     77.20810284	     46.82680839	      0.00000000	      0.00000000
     30.29257143	     -6.05164925	     -5.17621146	     -5.77431688	      1.05857349	      0.93079385	      0.43100530	     37.54692091	     -1.98927033	     -5.08303054	     54.63421419	     54.63421419	     -0.79276174	    -12.18892070	     -0.47338159	     11.83725881	     -7.26119532	     -8.31644305	     20.62066663	     20.62066663	     15.49607289	    -12.29391994	      1.14918464	    -12.53244697	      5.98743287	      4.76221957	      8.70554525	    -12.57632666	      0.85217878	     27.29865280	     46.22724173	      0.00000000	      0.00000000	     16.56235131	    -19.13708448	     -1.95332766	     80.66597647	     46.99658748	      0.00000000	      0.00000000
     30.30414286	     -6.06854439	     -5.22430263	     -5.97343115	      1.05782535	      0.93080914	      0.43184457	     37.58657809	     -1.73850760	     -5.33467700	     51.26000331	     51.26000331	     -0.35495239	    -10.83013609	     -0.50744974	     10.94977714	     -7.29507438	     -8.57731921	     19.99939940	     19.99939940	     15.73446618	    -12.06402362	      1.05329536	    -12.59374089	      6.14676890	      4.97750192	      6.94727125	    -12.93274901	      0.91215745	     26.07755907	     46.26260316	      0.00000000	      0.00000000	     18.27846009	    -19.17500959	     -2.50528911	     82.60431452	     47.08793559	      0.00000000	      0.00000000
     30.31571429	     -6.11235787	     -5.17199037	     -6.12888711	      1.05718580	      0.93057627	      0.43277304	     37.49210627	     -1.56871907	     -5.55418103	     47.62549277	     47.62549277	      0.13496383	     -9.40381220	     -0.63040662	     10.10722949	     -7.23137725	     -8.88681456	     19.38905318	     19.38905318	     15.94960772	    -11.75541944	      0.83006399	    -12.61283140	      6.15278161	      5.09797634	      5.22133250	    -13.18306248	      0.98593020	     24.85973865	     46.29837683	      0.00000000	      0.00000000	     19.90207201	    -19.39352309	     -2.85612308	     84.86874200	     47.17280922	      0.00000000	      0.00000000
     30.32728571	     -6.16933539	     -5.13952798	     -6.20665188	      1.05669372	      0.93024106	      0.43374325	     37.18397380	     -1.39569917	     -5.87089577	     43.67160909	     43.67160909	      0.52574651	     -7.87072733	     -0.61342087	      9.29021455	     -7.18361354	     -9.10219045	     18.79385204	     18.79385204	     16.17576752	    -11.41374260	      0.56308420	    -12.60121348	      6.18413791	      5.02492780	      3.48811001	    -13.40009868	      1.03723000	     23.87817655	     46.32501957	      0.00000000	      0.00000000	     21.38351660	    -19.68400165	     -3.10926634	     87.04131687	     47.24682705	      0.00000000	      0.00000000
     30.33885714	     -6.19994784	     -5.05619747	     -6.22156666	      1.05648249	      0.92972165	      0.43478948	     36.65120579	     -1.28431986	     -6.27778861	     39.54925523	     39.54925523	      1.00297668	     -6.28092059	     -0.53445699	      8.43179567	     -7.08171365	     -9.33927759	     18.18360433	     18.18360433	     16.38344731	    -11.03379564	      0.23312387	    -12.55292090	      6.15711792	      4.95179698	      1.71704799	    -13.56608735	      1.07204671	     23.10640872	     46.34320171	      0.00000000	      0.00000000	     22.79954335	    -19.99781881	     -3.30363418	     89.37133150	     47.32075096	      0.00000000	      0.00000000
     30.35042857	     -6.23463649	     -4.95624019	     -6.17250908	      1.05645449	      0.92901033	      0.43590417	     35.94912685	     -1.18169609	     -6.77161629	     35.31876125	     35.31876125	      1.41387325	     -4.66160643	     -0.21960002	      7.58778548	     -6.96186723	     -9.51529213	     17.59020484	     17.59020484	     16.59714431	    -10.62533597	     -0.13160770	    -12.48532901	      6.09338599	      4.77000843	     -0.10786317	    -13.70045710	      1.07506559	     22.59558017	     46.35069607	      0.00000000	      0.00000000	     24.13787302	    -20.34373218	     -3.46232755	     91.59556077	     47.39002567	      0.00000000	      0.00000000
     30.36200000	     -6.22636470	     -4.78130426	     -6.06516208	      1.05670707	      0.92810004	      0.43710045	     35.09380043	     -1.15521018	     -7.35159329	     31.17193078	     31.17193078	      1.82704300	     -3.02455991	      0.34611287	      6.70420227	     -6.76503086	     -9.69994965	     17.01202226	     17.01202226	     16.80502287	    -10.17555376	     -0.56315035	    -12.44562757	      5.93313747	      4.57614462	     -2.02516338	    -13.80637930	      1.04112052	     22.37646993	     46.34626197	      0.00000000	      0.00000000	     25.40555390	    -20.71047445	     -3.56064658	     93.85871913	     47.45867958	      0.00000000	      0.00000000
     30.37357143	     -6.24109064	     -4.65847778	     -5.91102253	      1.05719877	      0.92693637	      0.43847139	     34.16429817	     -1.05259522	     -8.08553742	     27.20174900	     27.20174900	      2.11770122	     -1.54514682	      1.23907022	      5.83655775	     -6.63412213	     -9.80296447	     16.44961338	     16.44961338	     17.09156984	     -9.75864078	     -0.94869811	    -12.30172171	      5.81944492	      4.29935082	     -3.89523507	    -13.87995311	      0.98245765	     22.30968131	     46.33553096	      0.00000000	      0.00000000	     26.63342779	    -21.02691974	     -3.61534653	     95.79012174	     47.51738750	      0.00000000	      0.00000000
     30.38514286	     -6.10644911	     -4.44222095	     -5.71733594	      1.05802170	      0.92567264	      0.43992436	     33.15003307	     -1.09371181	     -8.97750185	     23.77869558	     23.77869558	      2.55631514	      0.13256704	      2.60929592	      4.78204338	     -6.40721135	     -9.99206905	     15.86419566	     15.86419566	     17.39239696	     -9.15463601	     -1.49850699	    -12.34593645	      5.57820282	      4.16351995	     -6.12391708	    -13.99812503	      0.82614897	     22.86608146	     46.30048354	      0.00000000	      0.00000000	     27.76167500	    -21.35315636	     -3.45662064	     98.06832687	     47.57722932	      0.00000000	      0.00000000
